<svg width="12" height="13" viewBox="0 0 12 13" fill="none" xmlns="http://www.w3.org/2000/svg">
<path fill-rule="evenodd" clip-rule="evenodd" d="M6.00004 0.649323C5.7239 0.649323 5.50004 0.87318 5.50004 1.14932V6.14933H0.5C0.223858 6.14933 0 6.37319 0 6.64933C0 6.92547 0.223858 7.14933 0.5 7.14933H5.50004V12.1493C5.50004 12.4255 5.7239 12.6493 6.00004 12.6493C6.27618 12.6493 6.50004 12.4255 6.50004 12.1493V7.14933H11.5C11.7761 7.14933 12 6.92547 12 6.64933C12 6.37319 11.7761 6.14933 11.5 6.14933H6.50004V1.14932C6.50004 0.87318 6.27618 0.649323 6.00004 0.649323Z" fill="#353131"/>
</svg>
